# xmcd
#
# Track frame offsets:
# 150
# 19506
# 33231
# 58293
# 87443
# 114356
# 136431
# 155181
# 175243
# 192343
# 204365
# 222443
# 244493
# 257668
#
# Disc length: 3602 seconds
#
#
# Revision: 2
# Processed by: cddbd v1.5.1PL2 Copyright (c) Steve Scherf et al.
# Submitted via: FreeRIP 2.945 
#
DISCID=cd0e100e
DTITLE=Various Artist - Canto Cubano 2 - CD1
DYEAR=2006
DGENRE=Latin
TTITLE0=Celia Cruz - Celia's Oye Como Va
TTITLE1=Felix Baloy - Y no espera mas
TTITLE2=Afro-Cuban All Stars feat. Felix Baloy - Mami te gusto
TTITLE3=Papi Oviedo y sus Soneros - Chan Chan
TTITLE4=Son 14 - Rompamos el contrato
TTITLE5=Elio Reve y su Charanbon - Changui a la Loma del Chivo
TTITLE6=David Alvarez - Juana la loca
TTITLE7=Elvis Crespo - Suavemente (Merengue)
TTITLE8=David Alvarez and Juego de Manos - Cuida'o Cuida'o
TTITLE9=Tito Rodriguez - Abarriba Cumbiaremos
TTITLE10=Osdalgia - No Me Detengas
TTITLE11=Afro Cuban Jazz Project - Coge Este Tumbao
TTITLE12=Beny More with Orchestra Rafael de Paz - Bonito Y Sabroso
TTITLE13=Enrique Jorrin - Aprenda A Bailar El Cha-Cha-Cha
EXTD=The Sound of buena vista
EXTT0=
EXTT1=
EXTT2=
EXTT3=
EXTT4=
EXTT5=
EXTT6=
EXTT7=
EXTT8=
EXTT9=
EXTT10=
EXTT11=
EXTT12=
EXTT13=
PLAYORDER=
